<svg xmlns="http://www.w3.org/2000/svg" width="1200" height="675" viewBox="0 0 1200 675" font-family="ui-monospace, SFMono-Regular, Consolas, monospace" role="img" aria-labelledby="title description">
<title id="title">未識別信号</title><desc id="description">ほぼ真っ黒の画像。中央の細かなノイズに、二つの淡い反射が見える。</desc>
<defs>
  <linearGradient id="wall" x2="0.8" y2="1"><stop stop-color="#1c3035"/><stop offset=".55" stop-color="#0a181d"/><stop offset="1" stop-color="#040b0f"/></linearGradient>
  <linearGradient id="floor" x2="0" y2="1"><stop stop-color="#142b2e"/><stop offset="1" stop-color="#030b10"/></linearGradient>
  <linearGradient id="steel" x2="1" y2=".4"><stop stop-color="#112226"/><stop offset=".48" stop-color="#294047"/><stop offset=".53" stop-color="#172c32"/><stop offset="1" stop-color="#0b171d"/></linearGradient>
  <linearGradient id="water" x2="0" y2="1"><stop stop-color="#193638"/><stop offset=".42" stop-color="#0c2227"/><stop offset="1" stop-color="#030f15"/></linearGradient>
  <radialGradient id="glass"><stop stop-color="#0d2227"/><stop offset=".72" stop-color="#07171d"/><stop offset="1" stop-color="#020a10"/></radialGradient>
  <radialGradient id="vignette"><stop offset=".46" stop-color="#000" stop-opacity="0"/><stop offset="1" stop-color="#000" stop-opacity=".74"/></radialGradient>
  <radialGradient id="lamp"><stop stop-color="#ba5c4f" stop-opacity=".25"/><stop offset="1" stop-color="#a43930" stop-opacity="0"/></radialGradient>
  <linearGradient id="lightshaft" x2=".3" y2="1"><stop stop-color="#86b6b2" stop-opacity=".08"/><stop offset="1" stop-color="#7aa5a4" stop-opacity="0"/></linearGradient>
  <pattern id="scanlines" width="6" height="6" patternUnits="userSpaceOnUse"><path d="M0 1H6" stroke="#000" stroke-opacity=".3"/></pattern>
  <filter id="grain"><feTurbulence type="fractalNoise" baseFrequency=".72" numOctaves="3" stitchTiles="stitch"/><feColorMatrix type="saturate" values="0"/></filter>
  <filter id="soft"><feGaussianBlur stdDeviation="4"/></filter>
</defs>
<rect width="1200" height="675" fill="#010509"/>
<ellipse cx="603" cy="339" rx="170" ry="129" fill="#081317" opacity=".32" filter="url(#soft)"/>
<g fill="#64837e" opacity=".10">
<rect x="567" y="316" width="24" height="2"/><rect x="624" y="313" width="17" height="2"/><rect x="582" y="313" width="5" height="6"/><rect x="630" y="311" width="4" height="6"/>
<rect x="556" y="338" width="16" height="1"/><rect x="642" y="331" width="13" height="1"/><rect x="595" y="365" width="22" height="1"/>
<rect x="498" y="389" width="7" height="2"/><rect x="637" y="392" width="19" height="2"/><rect x="516" y="275" width="5" height="1"/>
</g>
<g stroke="#acc5ba" stroke-opacity=".07"><path d="M564 315H591M623 312H641M588 374H617"/><path d="M534 299H537M675 332H682M580 262H588M704 376H711"/></g>
<rect width="1200" height="675" fill="#a5c1bb" filter="url(#grain)" opacity=".025"/>
<rect width="1200" height="675" fill="url(#scanlines)"/>
<rect width="1200" height="675" fill="url(#vignette)"/>
<g fill="none" stroke="#8ba6a3" stroke-opacity=".5" stroke-width="1">
<path d="M26 57V27H56M1144 27H1174V57M26 618V648H56M1144 648H1174V618"/>

</g>
<g fill="#9bb1ae" font-family="ui-monospace, SFMono-Regular, Consolas, monospace" font-size="16" letter-spacing="2" opacity=".8">
<text x="47" y="58">UNKNOWN</text>
<text x="1152" y="58" text-anchor="end">— — : — — : — —</text>
<text x="47" y="626">IMG_10 / ABYSSAL-7</text>
<text x="1152" y="626" text-anchor="end">UNIDENTIFIED SOURCE</text>
</g>

</svg>
